<svg xmlns="http://www.w3.org/2000/svg" viewBox="0 0 468 495">
  <path fill="#030303" d="m241 2 4 2 2 1 12 7 5 2 3 2 53 27 37 18 13 7 4 2 17 9q-6 6-13 8l-22 11-2 1-10 5-4 2-46 23-4 2-10 5-4 2-2 1-32 16-2 1-8 2-10-5-24-12L87 85l-3-1-2-1-2-1-3-3 3-1 38-20 28-14 25-13 21-11 3-1 12-6 3-1 20-11q6-2 11 1"/>
  <path d="M468 285v81l-1 10-6 3-2 1-4 2-9 5-46 25-73 38-80 42-3 2-4 1v-97l29-15 3-1 69-35 2-1 2-1 3-2 2-1 107-53 2-1z"/>
  <path fill="#030303" d="m1 285 9 3 2 1 3 1 43 22 37 19 36 18 3 1 12 6 70 35 2 1 6 3 2 1q4 5 2 11v88l-12-5-3-2-3-1-145-77-59-31-3-1-3-4v-25z"/>
  <path fill="#070707" d="m42 258 18 9 3 2 10 5 1 1 5 2 15 8 6 3 3 1 119 60 3 2 3 1 3 1q8 1 16-5l2-1 8-4 36-18 3-2 7-3 116-59 2-1q5-2 9-1l3 1 2 1 2 1 2 1 2 1 18 9q0 3-4 5l-9 4-2 1-23 11-42 21-3 2-131 65-3 1-2 1-2 1c-6 2-12-2-17-4l-3-2-8-4-23-11-26-13-58-29-10-5-5-2-2-1-77-39v-2l2-1 9-4 3-2 3-1 3-2 7-3z"/>
  <path fill="#020202" d="M435 185v56l-32 17-3 1-2 1-149 75-2 1-7 2v-57l33-17 34-17 47-23 12-6 26-13 2-1 7-3 2-1 18-9 4-2 3-2 3-1z"/>
  <path fill="#080808" d="M70 159q7 1 13 4l2 1 6 3 134 68 4 2q7 3 12-1l4-2 2-1 6-3 135-68 3-2q6-2 11 1l8 4 6 3 3 2 4 1 3 5-1 1-98 48-27 13-59 29-4 2h-7l-11-6-3-1-11-6-5-2-3-1-55-28-17-8-2-1-81-41 9-6 3-1 4-2 6-3 3-2z"/>
  <path fill="#010101" d="m33 185 9 3 2 1 3 1 42 21 2 2 16 7 7 4 4 2 110 55v57l-10-4-2-1-3-2-5-2-2-2-21-10-18-9-14-7-120-60zm367-94v52a1843 1843 0 0 1-119 60l-30 15-3 2-8 2v-53a1825 1825 0 0 1 122-61l3-2 21-10 3-2 3-1 2-1z"/>
  <path fill="#060606" d="m68 90 14 6 2 1 7 3 94 47 12 6 22 11 2 1 7 4v53l-13-5-25-13-2-1-113-56-3-2-4-3z"/>
</svg>
